<svg xmlns="http://www.w3.org/2000/svg" width="800" height="450" viewBox="0 0 800 450">
<rect width="800" height="450" fill="#f7f5ef"/>
<line x1="428.8" y1="356.5" x2="414.0" y2="321.6" stroke="#1a1a17" stroke-opacity="0.089" stroke-width="0.8"/>
<line x1="428.8" y1="356.5" x2="464.1" y2="347.2" stroke="#1a1a17" stroke-opacity="0.091" stroke-width="0.8"/>
<line x1="428.8" y1="356.5" x2="452.0" y2="332.7" stroke="#1a1a17" stroke-opacity="0.093" stroke-width="0.8"/>
<line x1="428.8" y1="356.5" x2="485.1" y2="350.8" stroke="#1a1a17" stroke-opacity="0.091" stroke-width="0.8"/>
<line x1="496.8" y1="354.1" x2="469.6" y2="299.9" stroke="#1a1a17" stroke-opacity="0.128" stroke-width="0.8"/>
<line x1="496.8" y1="354.1" x2="524.2" y2="381.4" stroke="#1a1a17" stroke-opacity="0.131" stroke-width="0.8"/>
<line x1="496.8" y1="354.1" x2="481.3" y2="404.5" stroke="#1a1a17" stroke-opacity="0.130" stroke-width="0.8"/>
<line x1="496.8" y1="354.1" x2="494.1" y2="318.3" stroke="#1a1a17" stroke-opacity="0.130" stroke-width="0.8"/>
<line x1="188.8" y1="311.4" x2="183.0" y2="346.4" stroke="#1a1a17" stroke-opacity="0.095" stroke-width="0.8"/>
<line x1="188.8" y1="311.4" x2="190.8" y2="341.5" stroke="#1a1a17" stroke-opacity="0.094" stroke-width="0.8"/>
<line x1="188.8" y1="311.4" x2="194.3" y2="321.4" stroke="#1a1a17" stroke-opacity="0.093" stroke-width="0.8"/>
<line x1="188.8" y1="311.4" x2="153.9" y2="302.1" stroke="#1a1a17" stroke-opacity="0.094" stroke-width="0.8"/>
<line x1="621.4" y1="283.3" x2="574.3" y2="272.0" stroke="#1a1a17" stroke-opacity="0.090" stroke-width="0.8"/>
<line x1="621.4" y1="283.3" x2="635.2" y2="301.1" stroke="#1a1a17" stroke-opacity="0.095" stroke-width="0.8"/>
<line x1="621.4" y1="283.3" x2="566.1" y2="277.6" stroke="#1a1a17" stroke-opacity="0.093" stroke-width="0.8"/>
<line x1="202.4" y1="288.1" x2="194.7" y2="250.9" stroke="#1a1a17" stroke-opacity="0.162" stroke-width="0.8"/>
<line x1="202.4" y1="288.1" x2="234.5" y2="322.4" stroke="#1a1a17" stroke-opacity="0.158" stroke-width="0.8"/>
<line x1="202.4" y1="288.1" x2="184.6" y2="356.2" stroke="#1a1a17" stroke-opacity="0.160" stroke-width="0.8"/>
<line x1="337.7" y1="234.5" x2="372.3" y2="220.3" stroke="#1a1a17" stroke-opacity="0.076" stroke-width="0.8"/>
<line x1="337.7" y1="234.5" x2="352.5" y2="266.0" stroke="#1a1a17" stroke-opacity="0.078" stroke-width="0.8"/>
<line x1="337.7" y1="234.5" x2="314.6" y2="232.6" stroke="#1a1a17" stroke-opacity="0.075" stroke-width="0.8"/>
<line x1="337.7" y1="234.5" x2="335.1" y2="215.4" stroke="#1a1a17" stroke-opacity="0.078" stroke-width="0.8"/>
<line x1="751.6" y1="206.8" x2="803.6" y2="236.4" stroke="#1a1a17" stroke-opacity="0.130" stroke-width="0.8"/>
<line x1="751.6" y1="206.8" x2="730.2" y2="151.0" stroke="#1a1a17" stroke-opacity="0.134" stroke-width="0.8"/>
<line x1="751.6" y1="206.8" x2="759.9" y2="169.8" stroke="#1a1a17" stroke-opacity="0.132" stroke-width="0.8"/>
<line x1="751.6" y1="206.8" x2="752.2" y2="148.3" stroke="#1a1a17" stroke-opacity="0.134" stroke-width="0.8"/>
<line x1="71.6" y1="178.8" x2="29.6" y2="151.9" stroke="#1a1a17" stroke-opacity="0.114" stroke-width="0.8"/>
<line x1="71.6" y1="178.8" x2="77.7" y2="145.7" stroke="#1a1a17" stroke-opacity="0.115" stroke-width="0.8"/>
<line x1="71.6" y1="178.8" x2="129.2" y2="166.1" stroke="#1a1a17" stroke-opacity="0.110" stroke-width="0.8"/>
<line x1="71.6" y1="178.8" x2="77.5" y2="221.2" stroke="#1a1a17" stroke-opacity="0.118" stroke-width="0.8"/>
<line x1="526.7" y1="171.8" x2="496.4" y2="185.5" stroke="#1a1a17" stroke-opacity="0.083" stroke-width="0.8"/>
<line x1="526.7" y1="171.8" x2="491.8" y2="185.2" stroke="#1a1a17" stroke-opacity="0.081" stroke-width="0.8"/>
<line x1="526.7" y1="171.8" x2="498.8" y2="153.7" stroke="#1a1a17" stroke-opacity="0.081" stroke-width="0.8"/>
<line x1="526.7" y1="171.8" x2="568.2" y2="167.0" stroke="#1a1a17" stroke-opacity="0.082" stroke-width="0.8"/>
<line x1="447.1" y1="75.0" x2="362.1" y2="97.4" stroke="#1a1a17" stroke-opacity="0.157" stroke-width="0.8"/>
<line x1="447.1" y1="75.0" x2="406.6" y2="32.7" stroke="#1a1a17" stroke-opacity="0.161" stroke-width="0.8"/>
<line x1="447.1" y1="75.0" x2="456.9" y2="124.5" stroke="#1a1a17" stroke-opacity="0.158" stroke-width="0.8"/>
<line x1="447.1" y1="75.0" x2="446.1" y2="32.3" stroke="#1a1a17" stroke-opacity="0.153" stroke-width="0.8"/>
<line x1="268.9" y1="120.6" x2="298.2" y2="131.6" stroke="#1a1a17" stroke-opacity="0.087" stroke-width="0.8"/>
<line x1="268.9" y1="120.6" x2="246.7" y2="152.8" stroke="#1a1a17" stroke-opacity="0.092" stroke-width="0.8"/>
<line x1="268.9" y1="120.6" x2="252.1" y2="99.3" stroke="#1a1a17" stroke-opacity="0.089" stroke-width="0.8"/>
<line x1="268.9" y1="120.6" x2="280.3" y2="97.7" stroke="#1a1a17" stroke-opacity="0.090" stroke-width="0.8"/>
<line x1="518.6" y1="79.8" x2="505.4" y2="49.9" stroke="#1a1a17" stroke-opacity="0.103" stroke-width="0.8"/>
<line x1="518.6" y1="79.8" x2="520.0" y2="106.8" stroke="#1a1a17" stroke-opacity="0.105" stroke-width="0.8"/>
<line x1="518.6" y1="79.8" x2="520.9" y2="86.7" stroke="#1a1a17" stroke-opacity="0.100" stroke-width="0.8"/>
<line x1="518.6" y1="79.8" x2="525.9" y2="73.7" stroke="#1a1a17" stroke-opacity="0.108" stroke-width="0.8"/>
<line x1="496.8" y1="354.1" x2="428.8" y2="356.5" stroke="#1a1a17" stroke-opacity="0.278" stroke-width="0.8"/>
<line x1="621.4" y1="283.3" x2="188.8" y2="311.4" stroke="#1a1a17" stroke-opacity="0.234" stroke-width="0.8"/>
<line x1="202.4" y1="288.1" x2="621.4" y2="283.3" stroke="#1a1a17" stroke-opacity="0.319" stroke-width="0.8"/>
<line x1="202.4" y1="288.1" x2="496.8" y2="354.1" stroke="#1a1a17" stroke-opacity="0.366" stroke-width="0.8"/>
<circle cx="428.8" cy="356.5" r="2.60" fill="#0d6b56" fill-opacity="0.697"/>
<circle cx="414.0" cy="321.6" r="0.99" fill="#1a1a17" fill-opacity="0.407"/>
<circle cx="464.1" cy="347.2" r="1.04" fill="#1a1a17" fill-opacity="0.425"/>
<circle cx="452.0" cy="332.7" r="1.09" fill="#1a1a17" fill-opacity="0.446"/>
<circle cx="485.1" cy="350.8" r="1.05" fill="#1a1a17" fill-opacity="0.429"/>
<circle cx="496.8" cy="354.1" r="3.74" fill="#0d6b56" fill-opacity="1.000"/>
<circle cx="469.6" cy="299.9" r="1.42" fill="#1a1a17" fill-opacity="0.581"/>
<circle cx="524.2" cy="381.4" r="1.48" fill="#1a1a17" fill-opacity="0.608"/>
<circle cx="481.3" cy="404.5" r="1.47" fill="#1a1a17" fill-opacity="0.603"/>
<circle cx="494.1" cy="318.3" r="1.48" fill="#1a1a17" fill-opacity="0.606"/>
<circle cx="188.8" cy="311.4" r="2.69" fill="#0d6b56" fill-opacity="0.723"/>
<circle cx="183.0" cy="346.4" r="1.09" fill="#1a1a17" fill-opacity="0.447"/>
<circle cx="190.8" cy="341.5" r="1.06" fill="#1a1a17" fill-opacity="0.436"/>
<circle cx="194.3" cy="321.4" r="1.04" fill="#1a1a17" fill-opacity="0.425"/>
<circle cx="153.9" cy="302.1" r="1.08" fill="#1a1a17" fill-opacity="0.441"/>
<circle cx="621.4" cy="283.3" r="2.65" fill="#0d6b56" fill-opacity="0.712"/>
<circle cx="574.3" cy="272.0" r="0.99" fill="#1a1a17" fill-opacity="0.405"/>
<circle cx="635.2" cy="301.1" r="1.11" fill="#1a1a17" fill-opacity="0.454"/>
<circle cx="566.1" cy="277.6" r="1.06" fill="#1a1a17" fill-opacity="0.435"/>
<circle cx="202.4" cy="288.1" r="4.61" fill="#0d6b56" fill-opacity="1.000"/>
<circle cx="194.7" cy="250.9" r="1.85" fill="#1a1a17" fill-opacity="0.758"/>
<circle cx="234.5" cy="322.4" r="1.75" fill="#1a1a17" fill-opacity="0.718"/>
<circle cx="184.6" cy="356.2" r="1.81" fill="#1a1a17" fill-opacity="0.742"/>
<circle cx="337.7" cy="234.5" r="2.20" fill="#0d6b56" fill-opacity="0.591"/>
<circle cx="372.3" cy="220.3" r="0.85" fill="#1a1a17" fill-opacity="0.348"/>
<circle cx="352.5" cy="266.0" r="0.90" fill="#1a1a17" fill-opacity="0.370"/>
<circle cx="314.6" cy="232.6" r="0.84" fill="#1a1a17" fill-opacity="0.343"/>
<circle cx="335.1" cy="215.4" r="0.89" fill="#1a1a17" fill-opacity="0.366"/>
<circle cx="751.6" cy="206.8" r="3.81" fill="#0d6b56" fill-opacity="1.000"/>
<circle cx="803.6" cy="236.4" r="1.45" fill="#1a1a17" fill-opacity="0.594"/>
<circle cx="730.2" cy="151.0" r="1.53" fill="#1a1a17" fill-opacity="0.629"/>
<circle cx="759.9" cy="169.8" r="1.49" fill="#1a1a17" fill-opacity="0.612"/>
<circle cx="752.2" cy="148.3" r="1.52" fill="#1a1a17" fill-opacity="0.624"/>
<circle cx="71.6" cy="178.8" r="3.27" fill="#0d6b56" fill-opacity="0.878"/>
<circle cx="29.6" cy="151.9" r="1.29" fill="#1a1a17" fill-opacity="0.531"/>
<circle cx="77.7" cy="145.7" r="1.31" fill="#1a1a17" fill-opacity="0.538"/>
<circle cx="129.2" cy="166.1" r="1.21" fill="#1a1a17" fill-opacity="0.497"/>
<circle cx="77.5" cy="221.2" r="1.38" fill="#1a1a17" fill-opacity="0.567"/>
<circle cx="526.7" cy="171.8" r="2.31" fill="#0d6b56" fill-opacity="0.620"/>
<circle cx="496.4" cy="185.5" r="0.96" fill="#1a1a17" fill-opacity="0.393"/>
<circle cx="491.8" cy="185.2" r="0.93" fill="#1a1a17" fill-opacity="0.383"/>
<circle cx="498.8" cy="153.7" r="0.93" fill="#1a1a17" fill-opacity="0.381"/>
<circle cx="568.2" cy="167.0" r="0.94" fill="#1a1a17" fill-opacity="0.384"/>
<circle cx="447.1" cy="75.0" r="4.52" fill="#0d6b56" fill-opacity="1.000"/>
<circle cx="362.1" cy="97.4" r="1.78" fill="#1a1a17" fill-opacity="0.728"/>
<circle cx="406.6" cy="32.7" r="1.87" fill="#1a1a17" fill-opacity="0.766"/>
<circle cx="456.9" cy="124.5" r="1.81" fill="#1a1a17" fill-opacity="0.741"/>
<circle cx="446.1" cy="32.3" r="1.69" fill="#1a1a17" fill-opacity="0.692"/>
<circle cx="268.9" cy="120.6" r="2.56" fill="#0d6b56" fill-opacity="0.688"/>
<circle cx="298.2" cy="131.6" r="0.95" fill="#1a1a17" fill-opacity="0.390"/>
<circle cx="246.7" cy="152.8" r="1.07" fill="#1a1a17" fill-opacity="0.438"/>
<circle cx="252.1" cy="99.3" r="1.00" fill="#1a1a17" fill-opacity="0.409"/>
<circle cx="280.3" cy="97.7" r="1.02" fill="#1a1a17" fill-opacity="0.420"/>
<circle cx="518.6" cy="79.8" r="2.98" fill="#0d6b56" fill-opacity="0.801"/>
<circle cx="505.4" cy="49.9" r="1.17" fill="#1a1a17" fill-opacity="0.478"/>
<circle cx="520.0" cy="106.8" r="1.19" fill="#1a1a17" fill-opacity="0.489"/>
<circle cx="520.9" cy="86.7" r="1.09" fill="#1a1a17" fill-opacity="0.447"/>
<circle cx="525.9" cy="73.7" r="1.26" fill="#1a1a17" fill-opacity="0.517"/>
<text x="24" y="430" font-family="Spline Sans Mono,monospace" font-size="12" fill="#6a6860" letter-spacing="2">MONTH 1 — CORRECTIONS COMPOUND</text>
</svg>